<?xml version="1.0" encoding="UTF-8"?>
<svg id="Layer_2" data-name="Layer 2" xmlns="http://www.w3.org/2000/svg" viewBox="0 0 774 774">
  <defs>
    <style>
      .cls-1 {
        fill: #fff;
      }

      .cls-2 {
        fill: #8e02b1;
      }
    </style>
  </defs>
  <g id="Capa_3" data-name="Capa 3">
    <circle class="cls-2" cx="387" cy="387" r="387"/>
    <g>
      <path class="cls-1" d="m675,387c0-171.31-149.57-307.68-325.24-285.66-129.56,16.24-232.18,118.86-248.42,248.42-22.02,175.68,114.35,325.24,285.66,325.24,37.89,0,74.06-7.31,107.19-20.62.51-.21.85-.7.85-1.26v-192.9c0-41.45,34.43-75.29,75.82-73.12,37.99,1.99,68.18,33.42,68.18,71.9v20.05c0,11.41,15.97,14.19,19.75,3.42,10.5-29.88,16.21-62.01,16.21-95.48Zm-285.64,215.96c-41.62,1.33-75.65-32.7-74.32-74.32,1.2-37.7,31.91-68.4,69.6-69.6,41.62-1.33,75.65,32.7,74.32,74.32-1.2,37.7-31.91,68.4-69.6,69.6Z"/>
      <path class="cls-1" d="m616.17,463.13v147.41c0,27.13-21.92,49.13-48.97,49.13-17.14,0-32.24-8.85-40.97-22.24-5.06-7.73-7.99-16.97-7.99-26.89v-12.29h36.73c3.38,0,6.44-1.37,8.66-3.59,2.22-2.23,3.58-5.3,3.58-8.69,0-6.78-5.49-12.28-12.24-12.28h-36.73v-24.57h36.73c3.38,0,6.44-1.38,8.66-3.6,2.22-2.22,3.58-5.29,3.58-8.68,0-6.79-5.49-12.29-12.24-12.29h-36.73v-24.56h36.73c3.38,0,6.44-1.38,8.66-3.6,2.22-2.23,3.58-5.3,3.58-8.69,0-6.78-5.49-12.28-12.24-12.28h-36.73v-12.29c0-27.13,21.93-49.13,48.97-49.13,13.52,0,25.77,5.5,34.63,14.39,8.86,8.89,14.34,21.18,14.34,34.74Z"/>
    </g>
  </g>
</svg>