<svg xmlns="http://www.w3.org/2000/svg" viewBox="0 0 576 576">
  <g>
    <path d="M576,288C576,116.69,426.43-19.68,250.76,2.34,121.2,18.58,18.58,121.2,2.34,250.76-19.68,426.43,116.69,576,288,576c38.7,0,67.07-4.9,101.14-18.87a12.09,12.09,0,0,0,6.9-10.34V361.22c0-41.45,34.43-75.28,75.82-73.12A72,72,0,0,1,540,360v20.05c0,11.42,16,14.2,19.75,3.43A287.49,287.49,0,0,0,576,288ZM290.36,504a72,72,0,1,1,69.6-69.6A72,72,0,0,1,290.36,504Z" fill="#fff"/>
    <path d="M517.17,364.13V511.54a49,49,0,1,1-97.94,0V499.25H456a12.28,12.28,0,0,0,0-24.56H419.23V450.12H456a12.29,12.29,0,0,0,0-24.57H419.23V401H456a12.29,12.29,0,0,0,0-24.57H419.23V364.13a49,49,0,1,1,97.94,0Z" fill="#fff"/>
  </g>
</svg>
